<svg xmlns="http://www.w3.org/2000/svg" version="1.0" viewBox="0 0 200 50" color-interpolation-filters="sRGB" style="margin:auto"><g fill="#333" class="iconlinesvg-g iconlinesvg" style="--darkreader-inline-fill:#262a2b"><g class="tp-name"><g transform="translate(1.761 2.478)" class="imagesvg"><path class="image-rect" style="--darkreader-inline-fill:#262a2b" fill="none" d="M0 0h41.29v30.889H0z"/><svg width="41.29" height="30.889" class="image-svg-svg primary" style="overflow:visible"><svg xmlns="http://www.w3.org/2000/svg" viewBox="-0.003 0 150.972 112.94"><path d="M74.45 85.17c-4.59-1.92-9-4-13.15-6.23v34h34V92.17a151.49 151.49 0 0 1-20.85-7z" fill="#d4181f" style="--darkreader-inline-fill:#e93d43"/><path d="M83.16 88.49c-2.89-1-5.79-2.1-8.71-3.32C37.18 69.6 12.9 42.78 20.21 25.29c7.06-16.9 41-18.92 76.95-5l-1.22-4.9C51.93-1.06 10.56 2.07 1.69 23.29c-9.32 22.3 20.77 56.12 67.21 75.53 4.78 2 9.54 3.74 14.26 5.28z" fill="#d4181f" fill-rule="evenodd" style="--darkreader-inline-fill:#e93d43"/><path d="M61.3 72.81A127.09 127.09 0 0 0 77.51 81a126.56 126.56 0 0 0 17.74 5.94V67L140 0h-37.46L78.31 40.3 54.07 0H16.44L61.3 67z" fill="#004379" style="--darkreader-inline-fill:#003661"/><path d="M93.88 17.61 92 20.26c25.74 8.11 46.5 25.83 46.92 40.4.42 15.09-21.1 21.1-48.08 13.42a101.6 101.6 0 0 1-11.73-4.14l-.79 11.34c3.87 1.55 8.66 3.34 12.75 4.5 33.63 9.57 60.44 1.73 59.89-17.51C150.4 50 125.28 28 93.88 17.61z" fill="#004379" fill-rule="evenodd" style="--darkreader-inline-fill:#83caff"/></svg></svg></g><path d="M7.105 26.843q-3.57 0-5.34-1.93-1.76-1.93-1.76-5.14V8.613h4.64v10.72q0 3.87 3.6 3.87 1.59 0 2.99-.76 1.4-.75 2.35-2.26V8.613h4.64v17.68h-4.49v-2.39q-1.25 1.51-2.98 2.22-1.73.72-3.65.72Z" transform="translate(46.761 4.5)" data-gra="path-name" style="--darkreader-inline-fill:#c8c3bc"/><path d="M0 26.293V8.613h4.49v2.84q1.07-1.44 3.04-2.14 1.97-.7 4.51-.7v3.54q-2.69 0-4.66.83-1.97.83-2.74 2.59v10.72H0Z" transform="translate(68.761 4.5)" data-gra="path-name" style="--darkreader-inline-fill:#c8c3bc"/><path d="M2.61 5.523q-1.1 0-1.86-.74Q0 4.053 0 2.943q0-1.1.75-1.86.76-.75 1.86-.75 1.11 0 1.88.75.78.76.78 1.86 0 1.11-.78 1.84-.77.74-1.88.74ZM.26 26.293V8.613h4.71v17.68H.26Z" transform="translate(84.761 4.5)" data-gra="path-name" style="--darkreader-inline-fill:#c8c3bc"/><path d="M8.177 26.843q-2.29 0-4.51-.42-2.23-.42-3.67-1.12v-4.02q1.84.89 3.87 1.33 2.02.44 3.98.44 2.46 0 3.75-.92t1.29-2.54q0-1.14-.59-1.9-.59-.75-1.73-1.32-1.14-.58-3.5-1.5-3.61-1.47-5.23-3.27-1.62-1.81-1.62-4.5 0-2.09 1.15-3.72 1.14-1.62 3.2-2.5 2.06-.88 4.75-.88 2.21 0 3.92.35t3.37 1.08v3.91q-3.2-1.55-6.48-1.55-2.36 0-3.65.87-1.28.86-1.28 2.44 0 1.15.58 1.86.59.72 1.57 1.22.98.5 3.52 1.56 2.57 1.07 4.07 2.1 1.49 1.03 2.24 2.42.76 1.38.76 3.36 0 3.43-2.47 5.33-2.47 1.89-7.29 1.89Z" transform="translate(93.761 4.5)" data-gra="path-name" style="--darkreader-inline-fill:#c8c3bc"/><path d="M10.677 26.843q-4.93 0-7.8-2.46-2.88-2.47-2.88-6.89 0-4.35 2.54-6.89t7.26-2.54q3.09 0 5.28 1.18 2.19 1.18 3.3 3.22 1.1 2.05 1.1 4.66v2.14H4.417q.48 3.94 6.85 3.94 1.7 0 3.46-.3 1.77-.29 3.1-.81v3.57q-1.26.52-3.23.85-1.97.33-3.92.33Zm-6.26-10.75h10.68q-.07-2.1-1.49-3.24-1.42-1.14-3.89-1.14-2.43 0-3.83 1.18-1.39 1.17-1.47 3.2Z" transform="translate(114.761 4.5)" data-gra="path-name" style="--darkreader-inline-fill:#c8c3bc"/><path d="M0 26.293V8.613h4.49v2.4q1.25-1.51 2.98-2.23 1.74-.72 3.65-.72 3.57 0 5.34 1.93 1.77 1.94 1.77 5.14v11.16h-4.64v-10.72q0-3.86-3.61-3.86-1.58 0-2.98.75-1.4.76-2.36 2.27v11.56H0Z" transform="translate(137.761 4.5)" data-gra="path-name" style="--darkreader-inline-fill:#c8c3bc"/><path d="M7.627 26.843q-1.92 0-4.09-.44t-3.39-1.21v-3.95q1.44.89 3.43 1.42 1.98.54 3.75.54t2.58-.32q.81-.31.81-1.16 0-.66-.42-1.08-.43-.43-1.37-.78-.94-.35-2.89-.86-2.21-.63-3.48-1.29t-1.91-1.68q-.65-1.01-.65-2.63 0-2.65 2.1-3.99 2.1-1.35 5.67-1.35 1.84 0 3.67.35 1.82.35 2.85.98v3.79q-1.1-.66-2.69-1.07-1.58-.4-3.24-.4-1.8 0-2.72.35-.92.35-.92 1.34 0 .66.49 1.05.5.39 1.31.66.81.28 2.95.83 2.28.63 3.57 1.36 1.29.74 1.84 1.77t.55 2.58q0 2.36-2 3.77-2.01 1.42-5.8 1.42Z" transform="translate(159.761 4.5)" data-gra="path-name" style="--darkreader-inline-fill:#c8c3bc"/><path d="M10.677 26.843q-4.93 0-7.8-2.46-2.88-2.47-2.88-6.89 0-4.35 2.54-6.89t7.26-2.54q3.09 0 5.28 1.18 2.19 1.18 3.3 3.22 1.1 2.05 1.1 4.66v2.14H4.417q.48 3.94 6.85 3.94 1.7 0 3.46-.3 1.77-.29 3.1-.81v3.57q-1.26.52-3.23.85-1.97.33-3.92.33Zm-6.26-10.75h10.68q-.07-2.1-1.49-3.24-1.42-1.14-3.89-1.14-2.43 0-3.83 1.18-1.39 1.17-1.47 3.2Z" transform="translate(178.761 4.5)" data-gra="path-name" style="--darkreader-inline-fill:#c8c3bc"/></g><path d="m.004.146 1.66 7.87h1.19l1.17-4.74c.06-.3.13-.6.19-.89.07-.3.14-.59.2-.9h.05c.06.31.13.6.19.9.06.29.12.59.19.89l1.19 4.74h1.2l1.63-7.87h-.96l-.82 4.28c-.08.43-.16.85-.23 1.27-.07.42-.15.84-.22 1.28h-.05c-.09-.44-.19-.86-.28-1.29-.1-.42-.2-.84-.29-1.26L4.924.146h-.92l-1.09 4.28c-.09.43-.18.85-.27 1.27-.1.42-.19.84-.28 1.28h-.05c-.07-.44-.15-.86-.23-1.28-.08-.41-.15-.84-.22-1.27l-.83-4.28Zm10.23 0v7.87h4.66v-.85h-3.66v-2.86h2.99v-.85h-2.99V.986h3.54v-.84Zm12.1 4.67h-2.37l.38-1.2c.14-.44.28-.88.4-1.32.13-.43.26-.88.38-1.34h.04c.13.46.26.91.39 1.34.13.44.26.88.41 1.32Zm.25.8.74 2.4h1.07l-2.66-7.87h-1.13l-2.66 7.87h1.02l.75-2.4Zm3.92-1.74V.946h1.32c.62 0 1.09.11 1.42.31.33.21.49.58.49 1.1 0 .51-.16.89-.49 1.14-.33.25-.8.38-1.42.38Zm3.33 4.14h1.13l-2-3.43c.54-.14.97-.39 1.29-.76.32-.37.48-.86.48-1.47 0-.41-.07-.76-.21-1.04-.13-.28-.32-.5-.57-.68-.24-.18-.53-.3-.87-.38-.34-.07-.71-.11-1.11-.11h-2.46v7.87h.99v-3.32h1.43Zm2.65-7.87v7.87h4.66v-.85h-3.66v-2.86h2.98v-.85h-2.98V.986h3.54v-.84Zm8.29 3.93c0 .64.09 1.22.27 1.73.17.5.42.93.73 1.28s.68.61 1.11.8c.44.18.91.27 1.43.27.53 0 1-.08 1.42-.25.42-.18.76-.39 1.02-.66v-3.31h-2.58v.83h1.67v2.05c-.16.14-.37.26-.62.34-.25.09-.52.13-.8.13-.42 0-.8-.08-1.12-.23-.33-.15-.6-.37-.82-.65-.22-.28-.39-.62-.5-1.01-.12-.4-.18-.84-.18-1.34 0-.49.07-.93.19-1.32s.3-.73.52-1c.23-.28.5-.49.82-.64.32-.15.68-.22 1.08-.22s.73.07.99.21c.26.14.49.31.69.52l.56-.63c-.23-.24-.53-.47-.89-.67-.37-.2-.82-.31-1.36-.31-.53 0-1.02.1-1.46.29-.44.18-.82.45-1.14.81-.33.35-.58.78-.76 1.28-.18.5-.27 1.07-.27 1.7Zm11.16.74h-2.36l.37-1.2c.14-.44.28-.88.41-1.32.13-.43.25-.88.37-1.34h.05c.13.46.25.91.38 1.34.13.44.27.88.41 1.32Zm.25.8.75 2.4h1.07l-2.67-7.87h-1.13l-2.66 7.87h1.02l.76-2.4Zm4.04-.65v3.05h1v-3.05l2.37-4.82h-1.05l-1 2.22c-.12.29-.25.57-.39.85-.13.28-.27.57-.41.86h-.04c-.14-.29-.27-.58-.39-.86s-.24-.56-.37-.85l-1.02-2.22h-1.07Zm10.21-.15h-2.37l.38-1.2c.14-.44.28-.88.4-1.32.13-.43.26-.88.38-1.34h.04c.13.46.26.91.39 1.34.13.44.26.88.41 1.32Zm.25.8.74 2.4h1.07l-2.66-7.87h-1.13l-2.66 7.87h1.02l.75-2.4Zm2.93-5.47v7.87h.95v-4.12c0-.41-.02-.83-.05-1.24-.02-.41-.05-.82-.09-1.22h.05l.85 1.62 2.86 4.96h1.03V.146h-.95v4.07c0 .41.02.83.05 1.26.02.43.05.84.07 1.24h-.04l-.86-1.63-2.84-4.94Zm7.76 0v7.87h2.02c.59 0 1.11-.09 1.57-.27.46-.18.84-.44 1.15-.78.31-.34.55-.76.71-1.25.16-.49.24-1.05.24-1.67 0-1.26-.32-2.22-.95-2.89-.63-.68-1.55-1.01-2.77-1.01Zm1.9 7.05h-.9V.956h.9c.92 0 1.61.27 2.07.8.46.52.69 1.29.69 2.29s-.23 1.77-.69 2.33c-.46.55-1.15.82-2.07.82Zm7.91-7.05v7.87h.99v-3.71h3.66v3.71h1.01V.146h-1.01v3.3h-3.66v-3.3Zm10.72 8.01c.5 0 .95-.09 1.37-.28.41-.2.76-.47 1.06-.83.3-.35.54-.78.7-1.29.16-.51.25-1.08.25-1.71 0-.63-.09-1.19-.25-1.69s-.4-.92-.7-1.27c-.3-.35-.65-.62-1.06-.8-.42-.19-.87-.29-1.37-.29-.49 0-.95.1-1.36.28-.41.18-.76.45-1.06.8-.3.35-.53.77-.69 1.27-.16.5-.25 1.07-.25 1.7 0 .63.09 1.2.25 1.71s.39.94.69 1.29c.3.36.65.63 1.06.83.41.19.87.28 1.36.28Zm0-.87c-.35 0-.67-.08-.95-.23-.28-.15-.53-.37-.73-.65-.21-.29-.36-.63-.48-1.02-.11-.4-.16-.85-.16-1.34 0-.49.05-.93.16-1.32.12-.39.27-.73.48-1 .2-.27.45-.48.73-.63.28-.15.6-.22.95-.22.36 0 .67.07.96.22.28.15.53.36.73.63.2.27.36.61.47 1 .12.39.17.83.17 1.32 0 .49-.05.94-.17 1.34-.11.39-.27.73-.47 1.02-.2.28-.45.5-.73.65-.29.15-.6.23-.96.23Zm6.46-6.3v7.03h1.01V.986h2.37v-.84h-5.76v.84Z" transform="translate(46.13 39.367)" data-gra="path-slogan" class="tp-slogan" style="--darkreader-inline-fill:#c8c3bc"/></g></svg>
